<svg width="43" height="43" viewBox="0 0 43 43" fill="none" xmlns="http://www.w3.org/2000/svg">
<g filter="url(#filter0_d_2_403)">
<path d="M4 35V7.77778H11.7778V0H31.2222V15.5556H39V35H23.4444V27.2222H19.5556V35H4ZM7.88889 31.1111H11.7778V27.2222H7.88889V31.1111ZM7.88889 23.3333H11.7778V19.4444H7.88889V23.3333ZM7.88889 15.5556H11.7778V11.6667H7.88889V15.5556ZM15.6667 23.3333H19.5556V19.4444H15.6667V23.3333ZM15.6667 15.5556H19.5556V11.6667H15.6667V15.5556ZM15.6667 7.77778H19.5556V3.88889H15.6667V7.77778ZM23.4444 23.3333H27.3333V19.4444H23.4444V23.3333ZM23.4444 15.5556H27.3333V11.6667H23.4444V15.5556ZM23.4444 7.77778H27.3333V3.88889H23.4444V7.77778ZM31.2222 31.1111H35.1111V27.2222H31.2222V31.1111ZM31.2222 23.3333H35.1111V19.4444H31.2222V23.3333Z" fill="#A9592C"/>
</g>
<defs>
<filter id="filter0_d_2_403" x="0" y="0" width="43" height="43" filterUnits="userSpaceOnUse" color-interpolation-filters="sRGB">
<feFlood flood-opacity="0" result="BackgroundImageFix"/>
<feColorMatrix in="SourceAlpha" type="matrix" values="0 0 0 0 0 0 0 0 0 0 0 0 0 0 0 0 0 0 127 0" result="hardAlpha"/>
<feOffset dy="4"/>
<feGaussianBlur stdDeviation="2"/>
<feComposite in2="hardAlpha" operator="out"/>
<feColorMatrix type="matrix" values="0 0 0 0 0 0 0 0 0 0 0 0 0 0 0 0 0 0 0.25 0"/>
<feBlend mode="normal" in2="BackgroundImageFix" result="effect1_dropShadow_2_403"/>
<feBlend mode="normal" in="SourceGraphic" in2="effect1_dropShadow_2_403" result="shape"/>
</filter>
</defs>
</svg>
