<svg width="42" height="65" viewBox="0 0 42 65" fill="none" xmlns="http://www.w3.org/2000/svg">
<path d="M21 45.4687C24.2812 45.4687 27.0707 44.0483 29.3685 41.2076C31.6645 38.3647 32.8125 34.9135 32.8125 30.8538C32.8125 26.7941 31.6645 23.3428 29.3685 20.4999C27.0707 17.6592 24.2812 16.2388 21 16.2388V21.1105C23.1875 21.1105 25.0469 22.0577 26.5781 23.9523C28.1094 25.8468 28.875 28.1473 28.875 30.8538C28.875 33.5602 28.1094 35.8607 26.5781 37.7553C25.0469 39.6498 23.1875 40.597 21 40.597C19.5562 40.597 18.2114 40.1369 16.9654 39.2167C15.7176 38.2965 14.7438 37.0516 14.0438 35.4818L10.6313 37.8364C11.6813 40.2181 13.125 42.0856 14.9625 43.4388C16.8 44.7921 18.8125 45.4687 21 45.4687ZM11.1562 33.6144C11.725 33.6144 12.1958 33.3838 12.5685 32.9226C12.9395 32.4636 13.125 31.8822 13.125 31.1785C13.125 30.4749 12.9395 29.8924 12.5685 29.4312C12.1958 28.9722 11.725 28.7427 11.1562 28.7427C10.5875 28.7427 10.1176 28.9722 9.74662 29.4312C9.37387 29.8924 9.1875 30.4749 9.1875 31.1785C9.1875 31.8822 9.37387 32.4636 9.74662 32.9226C10.1176 33.3838 10.5875 33.6144 11.1562 33.6144ZM12.6 26.7941C13.1688 26.7941 13.6395 26.5635 14.0123 26.1023C14.3833 25.6433 14.5688 25.0619 14.5688 24.3582C14.5688 23.6545 14.3833 23.0721 14.0123 22.6109C13.6395 22.1519 13.1688 21.9224 12.6 21.9224C12.0313 21.9224 11.5605 22.1519 11.1877 22.6109C10.8168 23.0721 10.6313 23.6545 10.6313 24.3582C10.6313 25.0619 10.8168 25.6433 11.1877 26.1023C11.5605 26.5635 12.0313 26.7941 12.6 26.7941ZM16.4062 22.3284C16.975 22.3284 17.4458 22.0978 17.8185 21.6366C18.1895 21.1776 18.375 20.5962 18.375 19.8926C18.375 19.1889 18.1895 18.6075 17.8185 18.1485C17.4458 17.6873 16.975 17.4567 16.4062 17.4567C15.8375 17.4567 15.3676 17.6873 14.9966 18.1485C14.6239 18.6075 14.4375 19.1889 14.4375 19.8926C14.4375 20.5962 14.6239 21.1776 14.9966 21.6366C15.3676 22.0978 15.8375 22.3284 16.4062 22.3284ZM21 64.9553C14.9187 63.0607 9.89888 58.7434 5.94037 52.0032C1.98013 45.2652 0 37.7823 0 29.5547V9.74329L21 0L42 9.74329V29.5547C42 37.7823 40.0208 45.2652 36.0623 52.0032C32.102 58.7434 27.0812 63.0607 21 64.9553ZM21 58.135C25.55 56.3487 29.3125 52.7762 32.2875 47.4174C35.2625 42.0585 36.75 36.1043 36.75 29.5547V14.209L21 6.9015L5.25 14.209V29.5547C5.25 36.1043 6.7375 42.0585 9.7125 47.4174C12.6875 52.7762 16.45 56.3487 21 58.135Z" fill="#A9592C"/>
</svg>
