<svg width="56" height="47" viewBox="0 0 56 47" fill="none" xmlns="http://www.w3.org/2000/svg">
<path d="M46.9288 43.9999C50.1636 43.9999 52.7859 41.3776 52.7859 38.1428C52.7859 34.908 50.1636 32.2856 46.9288 32.2856C43.694 32.2856 41.0716 34.908 41.0716 38.1428C41.0716 41.3776 43.694 43.9999 46.9288 43.9999Z" stroke="#A9592C" stroke-width="5" stroke-linecap="round" stroke-linejoin="round"/>
<path d="M8.85714 35.2143V38.1429C8.85714 39.6963 9.47423 41.1861 10.5727 42.2845C11.6711 43.3829 13.1609 44 14.7143 44C16.2677 44 17.7575 43.3829 18.8559 42.2845C19.9543 41.1861 20.5714 39.6963 20.5714 38.1429V23.5H11.7857C9.4556 23.5 7.22092 24.4256 5.57328 26.0733C3.92564 27.7209 3 29.9556 3 32.2857V35.2143H32.2857C33.3712 32.0782 35.3225 29.3137 37.9139 27.2406C40.5053 25.1675 43.6307 23.8706 46.9286 23.5V8.85714C46.9286 7.30373 46.3115 5.81394 45.2131 4.71552C44.1146 3.61709 42.6248 3 41.0714 3H38.1429" stroke="#A9592C" stroke-width="5" stroke-linecap="round" stroke-linejoin="round"/>
<path d="M11.7856 14.7144H20.5713" stroke="#A9592C" stroke-width="5" stroke-linecap="round" stroke-linejoin="round"/>
</svg>
