<svg width="40" height="40" viewBox="0 0 40 40" fill="none" xmlns="http://www.w3.org/2000/svg">
<path d="M19.0593 36.7586H5.87931C4.85045 36.7586 3.86374 36.3499 3.13622 35.6224C2.40871 34.8949 2 33.9082 2 32.8793V9.60345C2 8.57459 2.40871 7.58787 3.13622 6.86036C3.86374 6.13285 4.85045 5.72414 5.87931 5.72414H29.1552C30.184 5.72414 31.1707 6.13285 31.8983 6.86036C32.6258 7.58787 33.0345 8.57459 33.0345 9.60345V17.3621" stroke="#A9592C" stroke-width="4" stroke-linecap="round" stroke-linejoin="round"/>
<path d="M30.5518 23.1035V30.5517H38" stroke="#A9592C" stroke-width="4" stroke-linecap="round" stroke-linejoin="round"/>
<path d="M30.5517 38C34.6652 38 37.9999 34.6653 37.9999 30.5517C37.9999 26.4382 34.6652 23.1035 30.5517 23.1035C26.4381 23.1035 23.1034 26.4382 23.1034 30.5517C23.1034 34.6653 26.4381 38 30.5517 38Z" stroke="#A9592C" stroke-width="4" stroke-linecap="round" stroke-linejoin="round"/>
<path d="M24.3448 2V9.44828" stroke="#A9592C" stroke-width="4" stroke-linecap="round" stroke-linejoin="round"/>
<path d="M9.44824 2V9.44828" stroke="#A9592C" stroke-width="4" stroke-linecap="round" stroke-linejoin="round"/>
<path d="M2 16.8965H33.0345" stroke="#A9592C" stroke-width="4" stroke-linecap="round" stroke-linejoin="round"/>
</svg>
