<svg width="57" height="57" viewBox="0 0 57 57" fill="none" xmlns="http://www.w3.org/2000/svg">
<path d="M15.5732 40.1623L2 32.0689L15.5732 23.9756L29.1463 32.0689V46.9067L15.5732 55V40.1623Z" stroke="#A9592C" stroke-width="4" stroke-linecap="round" stroke-linejoin="round"/>
<path d="M2 33.0244V47.2439L14.9268 55" stroke="#A9592C" stroke-width="4" stroke-linecap="round" stroke-linejoin="round"/>
<path d="M14.9269 40.7805L29.1464 33.0244" stroke="#A9592C" stroke-width="4" stroke-linecap="round" stroke-linejoin="round"/>
<path d="M42.0732 40.1623L29.1464 32.0689L42.0732 23.9756L55 32.0689V46.9067L42.0732 55V40.1623Z" stroke="#A9592C" stroke-width="4" stroke-linecap="round" stroke-linejoin="round"/>
<path d="M29.1464 47.2439L42.0732 55" stroke="#A9592C" stroke-width="4" stroke-linecap="round" stroke-linejoin="round"/>
<path d="M42.0731 40.7805L54.9999 33.0244" stroke="#A9592C" stroke-width="4" stroke-linecap="round" stroke-linejoin="round"/>
<path d="M28.5001 33.0244V18.1866L14.9269 10.0933L28.5001 2L42.0732 10.0933V24.9311" stroke="#A9592C" stroke-width="4" stroke-linecap="round" stroke-linejoin="round"/>
<path d="M14.9269 9.7561V23.9756" stroke="#A9592C" stroke-width="4" stroke-linecap="round" stroke-linejoin="round"/>
<path d="M29.1464 17.5122L42.0732 9.7561" stroke="#A9592C" stroke-width="4" stroke-linecap="round" stroke-linejoin="round"/>
</svg>
