<svg width="20" height="20" viewBox="0 0 20 20" fill="none" xmlns="http://www.w3.org/2000/svg" role="button" class="styles_showDateRangeIcon__edDzc"><g clip-path="url(#clip0_2238_50387)"><path d="M14.1667 2.50065H17.5C17.721 2.50065 17.933 2.58845 18.0893 2.74473C18.2456 2.90101 18.3334 3.11297 18.3334 3.33398V16.6673C18.3334 16.8883 18.2456 17.1003 18.0893 17.2566C17.933 17.4129 17.721 17.5007 17.5 17.5007H2.50002C2.27901 17.5007 2.06704 17.4129 1.91076 17.2566C1.75448 17.1003 1.66669 16.8883 1.66669 16.6673V3.33398C1.66669 3.11297 1.75448 2.90101 1.91076 2.74473C2.06704 2.58845 2.27901 2.50065 2.50002 2.50065H5.83335V0.833984H7.50002V2.50065H12.5V0.833984H14.1667V2.50065ZM12.5 4.16732H7.50002V5.83398H5.83335V4.16732H3.33335V7.50065H16.6667V4.16732H14.1667V5.83398H12.5V4.16732ZM16.6667 9.16732H3.33335V15.834H16.6667V9.16732Z" fill="#808080"></path></g><defs><clipPath id="clip0_2238_50387"><rect width="20" height="20" fill="white"></rect></clipPath></defs></svg>