<svg width="59" height="45" viewBox="0 0 59 45" fill="none" xmlns="http://www.w3.org/2000/svg">
<path d="M16.9294 42C20.0064 42 22.5008 39.5055 22.5008 36.4285C22.5008 33.3515 20.0064 30.8571 16.9294 30.8571C13.8523 30.8571 11.3579 33.3515 11.3579 36.4285C11.3579 39.5055 13.8523 42 16.9294 42Z" stroke="#A9592C" stroke-width="6" stroke-linecap="round" stroke-linejoin="round"/>
<path d="M44.7856 42C47.8626 42 50.357 39.5055 50.357 36.4285C50.357 33.3515 47.8626 30.8571 44.7856 30.8571C41.7085 30.8571 39.2141 33.3515 39.2141 36.4285C39.2141 39.5055 41.7085 42 44.7856 42Z" stroke="#A9592C" stroke-width="6" stroke-linecap="round" stroke-linejoin="round"/>
<path d="M11.3572 36.4287H5.78572V25.2858M3 3H33.6429V36.4287M22.5 36.4287H39.2144M50.3573 36.4287H55.9287V19.7143H33.6429M33.6429 5.78572H47.5715L55.9287 19.7143" stroke="#A9592C" stroke-width="6" stroke-linecap="round" stroke-linejoin="round"/>
<path d="M5.78601 14.143H16.9289" stroke="#A9592C" stroke-width="6" stroke-linecap="round" stroke-linejoin="round"/>
</svg>
