<svg width="15" height="15" viewBox="0 0 15 15" fill="none" xmlns="http://www.w3.org/2000/svg">
<g clip-path="url(#clip0_4_1630)">
<path d="M7.61838 1.10815V13.8005" stroke="#DBDFEA" stroke-width="0.8" stroke-linecap="round" stroke-linejoin="round"/>
<path d="M10.503 3.41589H6.17609C5.64056 3.41589 5.12696 3.62863 4.74828 4.00731C4.3696 4.38599 4.15686 4.89959 4.15686 5.43512C4.15686 5.97066 4.3696 6.48426 4.74828 6.86294C5.12696 7.24162 5.64056 7.45436 6.17609 7.45436H9.06071C9.59624 7.45436 10.1098 7.66709 10.4885 8.04577C10.8672 8.42445 11.0799 8.93805 11.0799 9.47359C11.0799 10.0091 10.8672 10.5227 10.4885 10.9014C10.1098 11.2801 9.59624 11.4928 9.06071 11.4928H4.15686" stroke="#DBDFEA" stroke-width="0.8" stroke-linecap="round" stroke-linejoin="round"/>
</g>
<defs>
<clipPath id="clip0_4_1630">
<rect x="0.695312" y="0.53125" width="13.8462" height="13.8462" fill="white"/>
</clipPath>
</defs>
</svg>
