<svg width="44" height="39" viewBox="0 0 44 39" fill="none" xmlns="http://www.w3.org/2000/svg">
<path d="M0 39V0H22V8.66667H44V39H0ZM4.4 34.6667H8.8V30.3333H4.4V34.6667ZM4.4 26H8.8V21.6667H4.4V26ZM4.4 17.3333H8.8V13H4.4V17.3333ZM4.4 8.66667H8.8V4.33333H4.4V8.66667ZM13.2 34.6667H17.6V30.3333H13.2V34.6667ZM13.2 26H17.6V21.6667H13.2V26ZM13.2 17.3333H17.6V13H13.2V17.3333ZM13.2 8.66667H17.6V4.33333H13.2V8.66667ZM22 34.6667H39.6V13H22V17.3333H26.4V21.6667H22V26H26.4V30.3333H22V34.6667ZM30.8 21.6667V17.3333H35.2V21.6667H30.8ZM30.8 30.3333V26H35.2V30.3333H30.8Z" fill="#A9592C"/>
</svg>
