<svg width="40" height="40" viewBox="0 0 40 40" fill="none" xmlns="http://www.w3.org/2000/svg">
<path d="M17.7778 22.2222C18.4074 22.2222 18.9356 22.0089 19.3622 21.5822C19.7874 21.157 20 20.6296 20 20C20 19.3704 19.7874 18.8422 19.3622 18.4156C18.9356 17.9904 18.4074 17.7778 17.7778 17.7778C17.1481 17.7778 16.6207 17.9904 16.1956 18.4156C15.7689 18.8422 15.5556 19.3704 15.5556 20C15.5556 20.6296 15.7689 21.157 16.1956 21.5822C16.6207 22.0089 17.1481 22.2222 17.7778 22.2222ZM8.88889 40V35.5556L22.2222 33.3333V8.61111C22.2222 8.05556 22.0556 7.55556 21.7222 7.11111C21.3889 6.66667 20.963 6.40741 20.4444 6.33333L8.88889 4.44444V0L21.1111 2C22.7407 2.2963 24.0741 3.05556 25.1111 4.27778C26.1481 5.5 26.6667 6.92593 26.6667 8.55556V37L8.88889 40ZM0 40V35.5556H4.44444V4.44444C4.44444 3.18519 4.88 2.12963 5.75111 1.27778C6.62074 0.425926 7.66667 0 8.88889 0H31.1111C32.3704 0 33.4259 0.425926 34.2778 1.27778C35.1296 2.12963 35.5556 3.18519 35.5556 4.44444V35.5556H40V40H0ZM8.88889 35.5556H31.1111V4.44444H8.88889V35.5556Z" fill="#A9592C"/>
</svg>
