<svg width="15" height="14" viewBox="0 0 15 14" fill="none" xmlns="http://www.w3.org/2000/svg">
<g clip-path="url(#clip0_4_1666)">
<path d="M7.61838 12.8524C10.8046 12.8524 13.3876 10.2695 13.3876 7.08319C13.3876 3.89694 10.8046 1.31396 7.61838 1.31396C4.43212 1.31396 1.84915 3.89694 1.84915 7.08319C1.84915 10.2695 4.43212 12.8524 7.61838 12.8524Z" stroke="#DBDFEA" stroke-width="0.8" stroke-linecap="round" stroke-linejoin="round"/>
<path d="M7.61839 9.3909C8.8929 9.3909 9.92608 8.35771 9.92608 7.08321C9.92608 5.8087 8.8929 4.77551 7.61839 4.77551C6.34389 4.77551 5.3107 5.8087 5.3107 7.08321C5.3107 8.35771 6.34389 9.3909 7.61839 9.3909Z" stroke="#DBDFEA" stroke-width="0.8" stroke-linecap="round" stroke-linejoin="round"/>
<path d="M3.53955 3.00439L5.9857 5.45055" stroke="#DBDFEA" stroke-width="0.8" stroke-linecap="round" stroke-linejoin="round"/>
<path d="M9.25107 8.71594L11.6972 11.1621" stroke="#DBDFEA" stroke-width="0.8" stroke-linecap="round" stroke-linejoin="round"/>
<path d="M9.25107 5.45055L11.6972 3.00439" stroke="#DBDFEA" stroke-width="0.8" stroke-linecap="round" stroke-linejoin="round"/>
<path d="M9.25107 5.4506L11.2876 3.41406" stroke="#DBDFEA" stroke-width="0.8" stroke-linecap="round" stroke-linejoin="round"/>
<path d="M3.53955 11.1621L5.9857 8.71594" stroke="#DBDFEA" stroke-width="0.8" stroke-linecap="round" stroke-linejoin="round"/>
</g>
<defs>
<clipPath id="clip0_4_1666">
<rect x="0.695312" y="0.160156" width="13.8462" height="13.8462" fill="white"/>
</clipPath>
</defs>
</svg>
