<svg width="18" height="21" viewBox="0 0 18 21" fill="none" xmlns="http://www.w3.org/2000/svg">
<path d="M14.657 14.6567L10.414 18.8997C10.039 19.2743 9.53059 19.4848 9.0005 19.4848C8.47042 19.4848 7.96202 19.2743 7.587 18.8997L3.343 14.6567C2.22422 13.5379 1.46234 12.1124 1.15369 10.5606C0.845043 9.00873 1.00349 7.40022 1.60901 5.93844C2.21452 4.47665 3.2399 3.22725 4.55548 2.34821C5.87107 1.46918 7.41777 1 9 1C10.5822 1 12.1289 1.46918 13.4445 2.34821C14.7601 3.22725 15.7855 4.47665 16.391 5.93844C16.9965 7.40022 17.155 9.00873 16.8463 10.5606C16.5377 12.1124 15.7758 13.5379 14.657 14.6567V14.6567Z" stroke="white" stroke-width="2" stroke-linecap="round" stroke-linejoin="round"/>
</svg>
