<svg width="34" height="34" viewBox="0 0 34 34" fill="none" xmlns="http://www.w3.org/2000/svg">
<path d="M22.95 15.3C23.6583 15.3 24.2601 15.0518 24.7554 14.5554C25.2518 14.0601 25.5 13.4583 25.5 12.75C25.5 12.0417 25.2518 11.4399 24.7554 10.9446C24.2601 10.4482 23.6583 10.2 22.95 10.2C22.2417 10.2 21.6399 10.4482 21.1446 10.9446C20.6482 11.4399 20.4 12.0417 20.4 12.75C20.4 13.4583 20.6482 14.0601 21.1446 14.5554C21.6399 15.0518 22.2417 15.3 22.95 15.3ZM11.05 15.3C11.7583 15.3 12.3601 15.0518 12.8554 14.5554C13.3518 14.0601 13.6 13.4583 13.6 12.75C13.6 12.0417 13.3518 11.4399 12.8554 10.9446C12.3601 10.4482 11.7583 10.2 11.05 10.2C10.3417 10.2 9.73987 10.4482 9.2446 10.9446C8.7482 11.4399 8.5 12.0417 8.5 12.75C8.5 13.4583 8.7482 14.0601 9.2446 14.5554C9.73987 15.0518 10.3417 15.3 11.05 15.3ZM17 26.35C18.9267 26.35 20.6765 25.8049 22.2496 24.7146C23.8215 23.6232 24.9617 22.185 25.67 20.4H8.33C9.03833 22.185 10.179 23.6232 11.7521 24.7146C13.324 25.8049 15.0733 26.35 17 26.35ZM17 34C14.6483 34 12.4383 33.5535 10.37 32.6604C8.30167 31.7685 6.5025 30.5575 4.9725 29.0275C3.4425 27.4975 2.23153 25.6983 1.3396 23.63C0.446534 21.5617 0 19.3517 0 17C0 14.6483 0.446534 12.4383 1.3396 10.37C2.23153 8.30167 3.4425 6.5025 4.9725 4.9725C6.5025 3.4425 8.30167 2.23097 10.37 1.3379C12.4383 0.445967 14.6483 0 17 0C19.3517 0 21.5617 0.445967 23.63 1.3379C25.6983 2.23097 27.4975 3.4425 29.0275 4.9725C30.5575 6.5025 31.7685 8.30167 32.6604 10.37C33.5535 12.4383 34 14.6483 34 17C34 19.3517 33.5535 21.5617 32.6604 23.63C31.7685 25.6983 30.5575 27.4975 29.0275 29.0275C27.4975 30.5575 25.6983 31.7685 23.63 32.6604C21.5617 33.5535 19.3517 34 17 34ZM17 30.6C20.7967 30.6 24.0125 29.2825 26.6475 26.6475C29.2825 24.0125 30.6 20.7967 30.6 17C30.6 13.2033 29.2825 9.9875 26.6475 7.3525C24.0125 4.7175 20.7967 3.4 17 3.4C13.2033 3.4 9.9875 4.7175 7.3525 7.3525C4.7175 9.9875 3.4 13.2033 3.4 17C3.4 20.7967 4.7175 24.0125 7.3525 26.6475C9.9875 29.2825 13.2033 30.6 17 30.6Z" fill="#A9592C"/>
</svg>
