<svg width="27" height="28" viewBox="0 0 27 28" fill="none" xmlns="http://www.w3.org/2000/svg">
<path d="M11.0769 28C7.36154 24.8033 4.58677 21.8339 2.75262 19.0918C0.917538 16.3506 0 13.8133 0 11.48C0 7.98 1.11369 5.19167 3.34108 3.115C5.56754 1.03833 8.14615 0 11.0769 0C14.0077 0 16.5863 1.03833 18.8128 3.115C21.0402 5.19167 22.1538 7.98 22.1538 11.48L25.0615 8.54L27 10.5L20.7692 16.8L14.5385 10.5L16.4769 8.54L19.3846 11.48C19.3846 8.93667 18.5825 6.85393 16.9782 5.2318C15.3748 3.6106 13.4077 2.8 11.0769 2.8C8.74615 2.8 6.77862 3.6106 5.17431 5.2318C3.57092 6.85393 2.76923 8.93667 2.76923 11.48C2.76923 13.1367 3.45 15.0323 4.81154 17.1668C6.17308 19.3023 8.26154 21.6767 11.0769 24.29C11.5385 23.87 11.9654 23.4617 12.3577 23.065L13.5346 21.875C13.4192 21.6417 13.3269 21.3906 13.2577 21.1218C13.1885 20.8539 13.1538 20.58 13.1538 20.3C13.1538 19.32 13.4885 18.4917 14.1577 17.815C14.8269 17.1383 15.6462 16.8 16.6154 16.8C17.5846 16.8 18.4038 17.1383 19.0731 17.815C19.7423 18.4917 20.0769 19.32 20.0769 20.3C20.0769 21.28 19.7423 22.1083 19.0731 22.785C18.4038 23.4617 17.5846 23.8 16.6154 23.8C16.4308 23.8 16.2637 23.7883 16.1142 23.765C15.9637 23.7417 15.8077 23.7067 15.6462 23.66C14.9769 24.36 14.2675 25.0717 13.518 25.795C12.7675 26.5183 11.9538 27.2533 11.0769 28Z" fill="#A9592C"/>
</svg>
