<svg width="52" height="47" viewBox="0 0 52 47" fill="none" xmlns="http://www.w3.org/2000/svg">
<path d="M30.7273 26.1966C28.7576 26.1966 27.0833 25.3476 25.7045 23.6497C24.3258 21.9518 23.6364 19.89 23.6364 17.4644C23.6364 15.0388 24.3258 12.977 25.7045 11.2791C27.0833 9.58116 28.7576 8.73219 30.7273 8.73219C32.697 8.73219 34.3712 9.58116 35.75 11.2791C37.1288 12.977 37.8182 15.0388 37.8182 17.4644C37.8182 19.89 37.1288 21.9518 35.75 23.6497C34.3712 25.3476 32.697 26.1966 30.7273 26.1966ZM14.1818 34.9288C12.8818 34.9288 11.7693 34.3583 10.8444 33.2173C9.91782 32.0782 9.45455 30.7082 9.45455 29.1073V5.82146C9.45455 4.22056 9.91782 2.85058 10.8444 1.71151C11.7693 0.570503 12.8818 0 14.1818 0H47.2727C48.5727 0 49.686 0.570503 50.6125 1.71151C51.5375 2.85058 52 4.22056 52 5.82146V29.1073C52 30.7082 51.5375 32.0782 50.6125 33.2173C49.686 34.3583 48.5727 34.9288 47.2727 34.9288H14.1818ZM18.9091 29.1073H42.5455C42.5455 27.5064 43.0079 26.1355 43.9329 24.9945C44.8595 23.8554 45.9727 23.2859 47.2727 23.2859V11.6429C45.9727 11.6429 44.8595 11.0724 43.9329 9.93142C43.0079 8.79235 42.5455 7.42237 42.5455 5.82146H18.9091C18.9091 7.42237 18.4458 8.79235 17.5193 9.93142C16.5943 11.0724 15.4818 11.6429 14.1818 11.6429V23.2859C15.4818 23.2859 16.5943 23.8554 17.5193 24.9945C18.4458 26.1355 18.9091 27.5064 18.9091 29.1073ZM44.9091 46.5717H4.72727C3.42727 46.5717 2.31479 46.0022 1.38982 44.8631C0.463273 43.7221 0 42.3511 0 40.7502V8.73219H4.72727V40.7502H44.9091V46.5717Z" fill="#A9592C"/>
</svg>
