<svg width="15" height="15" viewBox="0 0 15 15" fill="none" xmlns="http://www.w3.org/2000/svg">
<path d="M12.9319 9.7884C12.5648 10.6564 11.9908 11.4212 11.2599 12.0161C10.529 12.6109 9.66346 13.0177 8.73904 13.2008C7.81461 13.3839 6.85941 13.3377 5.95695 13.0664C5.05448 12.795 4.23222 12.3067 3.56207 11.6442C2.89191 10.9816 2.39426 10.165 2.11261 9.26568C1.83097 8.36637 1.77392 7.41176 1.94644 6.4853C2.11896 5.55885 2.5158 4.68876 3.10227 3.95111C3.68874 3.21346 4.44699 2.6307 5.31071 2.25378" stroke="#DBDFEA" stroke-width="0.8" stroke-linecap="round" stroke-linejoin="round"/>
<path d="M13.3876 7.5442C13.3876 6.78657 13.2384 6.03636 12.9485 5.33641C12.6585 4.63645 12.2336 4.00046 11.6978 3.46473C11.1621 2.92901 10.5261 2.50405 9.82617 2.21412C9.12621 1.92419 8.376 1.77496 7.61838 1.77496V7.5442H13.3876Z" stroke="#DBDFEA" stroke-width="0.8" stroke-linecap="round" stroke-linejoin="round"/>
</svg>
