<svg width="25" height="24" viewBox="0 0 25 24" fill="none" xmlns="http://www.w3.org/2000/svg"><g clip-path="url(#clip0_2238_54393)"><path d="M11.9629 2L19.2609 4.28C19.4644 4.34354 19.6423 4.47048 19.7686 4.64229C19.8949 4.81409 19.963 5.02177 19.9629 5.235V7H21.9629C22.2281 7 22.4825 7.10536 22.67 7.29289C22.8575 7.48043 22.9629 7.73478 22.9629 8V16C22.9629 16.2652 22.8575 16.5196 22.67 16.7071C22.4825 16.8946 22.2281 17 21.9629 17L18.7429 17.001C18.3559 17.511 17.8859 17.961 17.3429 18.331L11.9629 22L6.58289 18.332C5.77541 17.7815 5.11464 17.042 4.65803 16.1779C4.20142 15.3138 3.96279 14.3513 3.96289 13.374V5.235C3.96301 5.02194 4.03118 4.81449 4.15745 4.64289C4.28373 4.47128 4.46151 4.34449 4.66489 4.281L11.9629 2ZM11.9629 4.094L5.96289 5.97V13.374C5.96275 13.9862 6.10314 14.5903 6.37326 15.1397C6.64337 15.6892 7.036 16.1692 7.52089 16.543L7.70989 16.679L11.9629 19.58L15.7449 17H10.9629C10.6977 17 10.4433 16.8946 10.2558 16.7071C10.0682 16.5196 9.96289 16.2652 9.96289 16V8C9.96289 7.73478 10.0682 7.48043 10.2558 7.29289C10.4433 7.10536 10.6977 7 10.9629 7H17.9629V5.97L11.9629 4.094ZM11.9629 12V15H20.9629V12H11.9629ZM11.9629 10H20.9629V9H11.9629V10Z" fill="#DBDFEA"></path></g><defs><clipPath id="clip0_2238_54393"><rect width="24" height="24" fill="white" transform="translate(0.962891)"></rect></clipPath></defs></svg>