<svg width="38" height="35" viewBox="0 0 38 35" fill="none" xmlns="http://www.w3.org/2000/svg">
<path d="M8.63636 34.316C7.19697 34.316 5.97348 33.6904 4.96591 32.4393C3.95833 31.1882 3.45455 29.669 3.45455 27.8817H0V4.2895C0 3.10989 0.338546 2.10042 1.01564 1.26111C1.69158 0.420371 2.50455 0 3.45455 0H27.6364V8.579H32.8182L38 17.158V27.8817H34.5455C34.5455 29.669 34.0417 31.1882 33.0341 32.4393C32.0265 33.6904 30.803 34.316 29.3636 34.316C27.9242 34.316 26.7008 33.6904 25.6932 32.4393C24.6856 31.1882 24.1818 29.669 24.1818 27.8817H13.8182C13.8182 29.669 13.3144 31.1882 12.3068 32.4393C11.2992 33.6904 10.0758 34.316 8.63636 34.316ZM8.63636 30.0265C9.12576 30.0265 9.53627 29.8206 9.86791 29.4088C10.1984 28.9984 10.3636 28.4894 10.3636 27.8817C10.3636 27.2741 10.1984 26.765 9.86791 26.3547C9.53627 25.9429 9.12576 25.737 8.63636 25.737C8.14697 25.737 7.73645 25.9429 7.40482 26.3547C7.07433 26.765 6.90909 27.2741 6.90909 27.8817C6.90909 28.4894 7.07433 28.9984 7.40482 29.4088C7.73645 29.8206 8.14697 30.0265 8.63636 30.0265ZM3.45455 23.5922H4.83636C5.32576 22.9488 5.88712 22.4305 6.52045 22.0373C7.15379 21.6441 7.85909 21.4475 8.63636 21.4475C9.41364 21.4475 10.1189 21.6441 10.7523 22.0373C11.3856 22.4305 11.947 22.9488 12.4364 23.5922H24.1818V4.2895H3.45455V23.5922ZM29.3636 30.0265C29.853 30.0265 30.263 29.8206 30.5935 29.4088C30.9251 28.9984 31.0909 28.4894 31.0909 27.8817C31.0909 27.2741 30.9251 26.765 30.5935 26.3547C30.263 25.9429 29.853 25.737 29.3636 25.737C28.8742 25.737 28.4643 25.9429 28.1338 26.3547C27.8022 26.765 27.6364 27.2741 27.6364 27.8817C27.6364 28.4894 27.8022 28.9984 28.1338 29.4088C28.4643 29.8206 28.8742 30.0265 29.3636 30.0265ZM27.6364 19.3027H34.9773L31.0909 12.8685H27.6364V19.3027Z" fill="#A9592C"/>
</svg>
