<svg width="15" height="14" viewBox="0 0 15 14" fill="none" xmlns="http://www.w3.org/2000/svg">
<g clip-path="url(#clip0_4_1604)">
<path d="M10.503 12.1232V10.9694C10.503 10.3573 10.2599 9.77037 9.82711 9.33759C9.39433 8.90481 8.80736 8.66168 8.19532 8.66168H3.57994C2.9679 8.66168 2.38093 8.90481 1.94815 9.33759C1.51538 9.77037 1.27225 10.3573 1.27225 10.9694V12.1232" stroke="#DBDFEA" stroke-width="0.8" stroke-linecap="round" stroke-linejoin="round"/>
<path d="M5.88762 6.35397C7.16212 6.35397 8.19531 5.32078 8.19531 4.04628C8.19531 2.77178 7.16212 1.73859 5.88762 1.73859C4.61311 1.73859 3.57993 2.77178 3.57993 4.04628C3.57993 5.32078 4.61311 6.35397 5.88762 6.35397Z" stroke="#DBDFEA" stroke-width="0.8" stroke-linecap="round" stroke-linejoin="round"/>
<path d="M13.9645 12.1232V10.9693C13.9642 10.458 13.794 9.96131 13.4807 9.5572C13.1674 9.15309 12.7288 8.86446 12.2338 8.73663" stroke="#DBDFEA" stroke-width="0.8" stroke-linecap="round" stroke-linejoin="round"/>
<path d="M9.92609 1.8136C10.4225 1.9407 10.8625 2.22939 11.1766 2.63416C11.4908 3.03894 11.6614 3.53677 11.6614 4.04918C11.6614 4.56158 11.4908 5.05942 11.1766 5.46419C10.8625 5.86897 10.4225 6.15766 9.92609 6.28476" stroke="#DBDFEA" stroke-width="0.8" stroke-linecap="round" stroke-linejoin="round"/>
</g>
<defs>
<clipPath id="clip0_4_1604">
<rect x="0.695312" y="0.0078125" width="13.8462" height="13.8462" fill="white"/>
</clipPath>
</defs>
</svg>
