<svg width="20" height="21" viewBox="0 0 20 21" fill="none" xmlns="http://www.w3.org/2000/svg">
<g filter="url(#filter0_d_4_1623)">
<path d="M14.2338 7.07937V4.77168H6.15684C5.85082 4.77168 5.55733 4.65012 5.34094 4.43373C5.12456 4.21734 5.00299 3.92385 5.00299 3.61784C5.00299 2.98322 5.52222 2.46399 6.15684 2.46399H13.0799V4.77168" stroke="#DBDFEA" stroke-width="0.8" stroke-linecap="round" stroke-linejoin="round"/>
<path d="M5.00299 3.6178V10.5409C5.00299 11.1755 5.52222 11.6947 6.15684 11.6947H14.2338V9.38703" stroke="#DBDFEA" stroke-width="0.8" stroke-linecap="round" stroke-linejoin="round"/>
<path d="M13.0799 7.07935C12.7739 7.07935 12.4804 7.20091 12.264 7.4173C12.0477 7.63369 11.9261 7.92717 11.9261 8.23319C11.9261 8.86781 12.4453 9.38704 13.0799 9.38704H15.3876V7.07935H13.0799Z" stroke="#DBDFEA" stroke-width="0.8" stroke-linecap="round" stroke-linejoin="round"/>
</g>
<defs>
<filter id="filter0_d_4_1623" x="-1.30469" y="0.15625" width="21.8462" height="21.8462" filterUnits="userSpaceOnUse" color-interpolation-filters="sRGB">
<feFlood flood-opacity="0" result="BackgroundImageFix"/>
<feColorMatrix in="SourceAlpha" type="matrix" values="0 0 0 0 0 0 0 0 0 0 0 0 0 0 0 0 0 0 127 0" result="hardAlpha"/>
<feOffset dy="4"/>
<feGaussianBlur stdDeviation="2"/>
<feComposite in2="hardAlpha" operator="out"/>
<feColorMatrix type="matrix" values="0 0 0 0 0 0 0 0 0 0 0 0 0 0 0 0 0 0 0.25 0"/>
<feBlend mode="normal" in2="BackgroundImageFix" result="effect1_dropShadow_4_1623"/>
<feBlend mode="normal" in="SourceGraphic" in2="effect1_dropShadow_4_1623" result="shape"/>
</filter>
</defs>
</svg>
