<svg width="43" height="43" viewBox="0 0 43 43" fill="none" xmlns="http://www.w3.org/2000/svg">
<path d="M2 40.8544L5.56348 32.6441C2.83723 28.7725 1.61702 24.0385 2.13184 19.3307C2.64666 14.6229 4.86112 10.2649 8.35964 7.07449C11.8582 3.8841 16.4002 2.08067 21.1335 2.00264C25.8667 1.92461 30.4657 3.57735 34.0674 6.65069C37.6691 9.72403 40.0258 14.0067 40.6954 18.695C41.365 23.3833 40.3014 28.1548 37.7041 32.1143C35.1069 36.0737 31.1545 38.9488 26.5888 40.2C22.0232 41.4512 17.158 40.9924 12.9064 38.9099L2 40.8544Z" stroke="#0E8019" stroke-width="3" stroke-linecap="round" stroke-linejoin="round"/>
<path d="M14.9636 17.9552C14.9636 18.2196 15.0686 18.4733 15.2556 18.6603C15.4426 18.8473 15.6963 18.9524 15.9608 18.9524C16.2252 18.9524 16.4789 18.8473 16.6659 18.6603C16.8529 18.4733 16.958 18.2196 16.958 17.9552V15.9608C16.958 15.6963 16.8529 15.4426 16.6659 15.2556C16.4789 15.0686 16.2252 14.9636 15.9608 14.9636C15.6963 14.9636 15.4426 15.0686 15.2556 15.2556C15.0686 15.4426 14.9636 15.6963 14.9636 15.9608V17.9552ZM14.9636 17.9552C14.9636 20.5999 16.0142 23.1363 17.8843 25.0065C19.7544 26.8766 22.2908 27.9272 24.9356 27.9272M24.9356 27.9272H26.93C27.1945 27.9272 27.4481 27.8221 27.6351 27.6351C27.8221 27.4481 27.9272 27.1945 27.9272 26.93C27.9272 26.6655 27.8221 26.4119 27.6351 26.2249C27.4481 26.0379 27.1945 25.9328 26.93 25.9328H24.9356C24.6711 25.9328 24.4175 26.0379 24.2305 26.2249C24.0434 26.4119 23.9384 26.6655 23.9384 26.93C23.9384 27.1945 24.0434 27.4481 24.2305 27.6351C24.4175 27.8221 24.6711 27.9272 24.9356 27.9272Z" stroke="#0E8019" stroke-width="3" stroke-linecap="round" stroke-linejoin="round"/>
</svg>
